# xmcd CD database file
#
# Track frame offsets:
#	150
#	11454
#	24805
#	38424
#	53829
#	65346
#	76115
#	90369
#	103385
#	116610
#	127352
#	140755
#	154181
#	167164
#	180038
#
# Disc length: 2587 seconds
#
# Revision: 1
# Processed by: cddbd v1.5PL3 Copyright (c) Steve Scherf et al.
# Submitted via: jetAudio 5
#
DISCID=b40a190f
DTITLE=John Lee Hooker - I'm Ready
DYEAR=1900
DGENRE=
TTITLE0=I'm ready
TTITLE1=Ride 'til I Die
TTITLE2=Hoboin'
TTITLE3=I Need Love So Bad
TTITLE4=Baby I'm Gonna Miss You
TTITLE5=Gotta Boogie (Gonna Boogie)
TTITLE6=Looking For A Woman
TTITLE7=Looking For Romance
TTITLE8=Reach My Goal
TTITLE9=Maudie
TTITLE10=Need Somebody
TTITLE11=The Syndicator
TTITLE12=I Tried Hard
TTITLE13=Down Child
TTITLE14=Bad Boy
EXTD=2003
EXTT0=
EXTT1=
EXTT2=
EXTT3=
EXTT4=
EXTT5=
EXTT6=
EXTT7=
EXTT8=
EXTT9=
EXTT10=
EXTT11=
EXTT12=
EXTT13=
EXTT14=
PLAYORDER=
